# xmcd
#
# Track frame offsets:
#	150
#	18705
#	59830
#	76220
#	111440
#	124340
#	135900
#	159350
#	180610
#	213060
#	232400
#	273425
#	286340
#	302680
#
# Disc length: 4217 seconds
#
# Revision: 1
# Processed by: cddbd v1.5.1PL0 Copyright (c) Steve Scherf et al.
# Submitted via: EasyCDDAExtractor 6.2.0.3
#
DISCID=cb10770e
DTITLE=Stevie Ray Vaughan And Double Trouble - Austin City Limits - Missing He
DTITLE=arts - Volume 3
DYEAR=1983
DGENRE=Blues
TTITLE0=Pride and Joy
TTITLE1=Texas Flood
TTITLE2=Rude Mood
TTITLE3=Voodoo Chile (Slight Return)
TTITLE4=Love Struck Baby
TTITLE5=The House Is Rockin'
TTITLE6=Tightrope
TTITLE7=Leabe My Girl Alone
TTITLE8=Cold Shot Fever
TTITLE9=Crossfire
TTITLE10=Lenny
TTITLE11=Rude Mood (Acoustic)
TTITLE12=Pride and Joy (Acoustic)
TTITLE13=Testify (Acoustic)
EXTD=From the bootleg "Austin City Limits - Missing Hearts Volume 3".\n
EXTT0=
EXTT1=
EXTT2=
EXTT3=
EXTT4=
EXTT5=
EXTT6=
EXTT7=
EXTT8=
EXTT9=
EXTT10=
EXTT11=
EXTT12=
EXTT13=
PLAYORDER=
